
<?xml version="1.0" encoding="UTF-8" standalone="no"?>
<!-- Created with Inkscape (http://www.inkscape.org/) -->
<svg
   xmlns:svg="http://www.w3.org/2000/svg"
   xmlns="http://www.w3.org/2000/svg"
   version="1.0"
   width="1317.1521"
   height="267.52695"
   id="svg3067">
  <defs
     id="defs3069">
    <clipPath
       id="clipPath279">
      <path
         d="M 663.159,10.893 L 833.445,10.893 L 833.445,37.802 L 663.159,37.802 L 663.159,10.893 z"
         id="path281" />
    </clipPath>
    <clipPath
       id="clipPath245">
      <path
         d="M 663.159,10.893 L 833.445,10.893 L 833.445,37.802 L 663.159,37.802 L 663.159,10.893 z"
         id="path247" />
    </clipPath>
    <clipPath
       id="clipPath199">
      <path
         d="M 651.968,-11.338 L 855.404,-11.338 L 855.404,45.355 L 651.968,45.355 L 651.968,-11.338 z"
         id="path201" />
    </clipPath>
  </defs>
  <g
     transform="translate(960.00461,-183.12549)"
     id="layer1">
    <path
       d="M -960.00461,450.65245 L 357.1475,450.65245 L 357.1475,183.12549 L -960.00461,183.12549 L -960.00461,450.65245 z"
       id="path193"
       style="fill:#f68113;fill-opacity:1;fill-rule:evenodd;stroke:none" />
    <path
       d="M -577.1195,365.42788 L -579.3281,370.6979 L -588.46135,370.6979 L -599.60639,397.31042 L -608.04718,397.31042 L -596.90214,370.6979 L -606.04267,370.6979 L -603.84136,365.42788 L -577.1195,365.42788 z"
       id="path203"
       style="fill:#ffffff;fill-opacity:1;fill-rule:nonzero;stroke:none" />
    <path
       d="M -580.17364,373.28553 L -572.43261,373.28553 L -573.78109,376.50003 L -573.66447,376.50003 C -571.05497,374.1748 -568.13204,372.65867 -564.79363,372.65867 C -564.31984,372.65867 -563.8096,372.7024 -563.36496,372.75343 L -565.82868,378.64302 C -566.63048,378.59929 -567.4906,378.55555 -568.31426,378.55555 C -571.12786,378.55555 -574.75783,379.67079 -576.10632,382.88528 L -582.1417,397.31042 L -590.22532,397.31042 L -580.17364,373.28553 z"
       id="path205"
       style="fill:#ffffff;fill-opacity:1;fill-rule:nonzero;stroke:none" />
    <path
       d="M -549.81452,385.29798 C -551.18487,385.92484 -552.70829,386.32574 -553.77979,386.50068 C -557.27856,387.04007 -559.07168,388.24278 -559.97553,390.38577 C -560.74088,392.21534 -560.50034,393.73876 -558.32819,393.73876 C -556.15604,393.73876 -552.89781,392.66726 -551.79715,390.02861 L -549.81452,385.29798 z M -562.63605,380.65482 L -562.39551,380.07169 C -560.07758,374.53197 -554.31189,372.65867 -548.2182,372.65867 C -538.60387,372.65867 -538.05719,375.69822 -539.87218,380.02795 L -545.16407,392.66726 C -546.09707,394.89773 -546.35219,395.92549 -546.11165,397.31042 L -553.84539,397.31042 C -554.05677,396.55236 -553.89641,395.61206 -553.79437,394.81026 L -553.91099,394.81026 C -556.83392,397.31042 -559.37782,397.93 -563.24834,397.93 C -568.87553,397.93 -569.33474,394.27087 -567.98626,391.05637 C -566.09838,386.54441 -562.93491,384.71485 -556.87766,383.55588 L -551.91378,382.61559 C -549.30428,382.12722 -548.18905,381.41288 -547.51116,379.80928 C -546.75309,377.97243 -547.33622,376.85719 -550.03319,376.85719 C -552.48962,376.85719 -554.3046,378.10363 -555.09183,379.98422 L -555.36881,380.65482 L -562.63605,380.65482 z"
       id="path207"
       style="fill:#ffffff;fill-opacity:1;fill-rule:nonzero;stroke:none" />
    <path
       d="M -530.13393,373.28553 L -522.40019,373.28553 L -523.57374,376.09913 L -523.45711,376.09913 C -520.76743,373.73017 -517.39258,372.65867 -513.99585,372.65867 C -508.95179,372.65867 -506.83795,374.75793 -508.82059,379.48856 L -516.28463,397.31042 L -524.36825,397.31042 L -517.42902,380.74229 C -516.42312,378.32959 -517.08643,377.39659 -519.49184,377.39659 C -522.23983,377.39659 -524.30994,378.68676 -525.43246,381.36915 L -532.10199,397.31042 L -540.1929,397.31042 L -530.13393,373.28553 z"
       id="path209"
       style="fill:#ffffff;fill-opacity:1;fill-rule:nonzero;stroke:none" />
    <path
       d="M -500.50372,389.45277 L -500.83902,390.25457 C -501.721,392.35383 -500.83173,393.73876 -498.07645,393.73876 C -495.62002,393.73876 -493.58636,392.79847 -492.78456,390.87414 C -492.12854,389.31427 -493.17817,388.59994 -494.57039,388.15531 L -499.59987,386.59544 C -503.55056,385.38545 -504.95736,383.28618 -503.53599,379.89675 C -501.86678,375.9169 -497.23091,372.65867 -488.90675,372.65867 C -481.5812,372.65867 -479.16851,375.15883 -480.98349,379.48856 L -481.39897,380.47259 L -488.65892,380.47259 C -487.65303,378.06718 -488.08308,376.85719 -490.72174,376.85719 C -492.76998,376.85719 -494.90569,377.75375 -495.61273,379.44482 C -496.1011,380.61108 -495.69291,381.58782 -493.27293,382.25842 L -488.93591,383.51215 C -484.38022,384.80232 -483.33059,386.77038 -484.83943,390.38577 C -486.95327,395.42983 -492.92305,397.93 -499.71649,397.93 C -508.79872,397.93 -510.05245,394.89773 -508.12812,390.2983 L -507.77096,389.45277 L -500.50372,389.45277 z"
       id="path211"
       style="fill:#ffffff;fill-opacity:1;fill-rule:nonzero;stroke:none" />
    <path
       d="M -468.43894,393.19937 C -464.9256,393.19937 -463.10332,390.52426 -460.91659,385.29798 C -458.72986,380.07169 -458.30709,377.39659 -461.82773,377.39659 C -465.39939,377.39659 -467.22895,380.07169 -469.4084,385.29798 C -471.59513,390.52426 -472.01789,393.19937 -468.43894,393.19937 M -472.46982,373.28553 L -464.73608,373.28553 L -465.80029,375.82943 L -465.68366,375.82943 C -462.99398,373.59896 -460.3699,372.65867 -457.20643,372.65867 C -450.58793,372.65867 -449.09366,376.36882 -452.83297,385.29798 C -456.56499,394.22713 -461.16442,397.93 -467.78292,397.93 C -470.83706,397.93 -472.49169,396.99699 -473.38825,395.07267 L -473.50487,395.07267 L -477.73255,405.16808 L -485.81617,405.16808 L -472.46982,373.28553 z"
       id="path213"
       style="fill:#ffffff;fill-opacity:1;fill-rule:nonzero;stroke:none" />
    <path
       d="M -439.18048,393.73876 C -435.90767,393.73876 -433.82298,391.28233 -431.31553,385.29798 C -428.80808,379.31362 -428.83724,376.85719 -432.12462,376.85719 C -436.10447,376.85719 -437.93404,380.38512 -439.98957,385.29798 C -442.04509,390.21083 -443.16762,393.73876 -439.18048,393.73876 M -430.36066,372.65867 C -420.57868,372.52746 -419.73314,376.94466 -423.23191,385.29798 C -426.66508,393.5128 -431.68728,397.93 -440.94444,397.93 C -450.72642,398.06849 -451.57195,393.644 -448.07318,385.29798 C -444.64002,377.08315 -439.62511,372.65867 -430.36066,372.65867"
       id="path215"
       style="fill:#ffffff;fill-opacity:1;fill-rule:nonzero;stroke:none" />
    <path
       d="M -412.69187,373.28553 L -404.95813,373.28553 L -406.29932,376.50003 L -406.1827,376.50003 C -403.5732,374.1748 -400.65026,372.65867 -397.31185,372.65867 C -396.84535,372.65867 -396.33511,372.7024 -395.88319,372.75343 L -398.34691,378.64302 C -399.14871,378.59929 -400.00882,378.55555 -400.83249,378.55555 C -403.64609,378.55555 -407.27606,379.67079 -408.61726,382.88528 L -414.65993,397.31042 L -422.74354,397.31042 L -412.69187,373.28553 z"
       id="path217"
       style="fill:#ffffff;fill-opacity:1;fill-rule:nonzero;stroke:none" />
    <path
       d="M -387.3768,366.4119 L -379.29319,366.4119 L -382.17238,373.28553 L -377.4782,373.28553 L -379.23487,377.48406 L -383.92177,377.48406 L -389.36673,390.47324 C -390.14666,392.35383 -389.94257,393.1119 -387.59548,393.1119 C -386.94675,393.1119 -386.29073,393.06816 -385.74404,393.01714 L -387.53716,397.31042 C -389.35215,397.44163 -391.05051,397.57283 -392.92381,397.57283 C -399.25076,397.57283 -399.80473,396.10043 -397.77107,391.2386 L -392.01268,377.48406 L -396.11644,377.48406 L -394.35977,373.28553 L -390.256,373.28553 L -387.3768,366.4119 z"
       id="path219"
       style="fill:#ffffff;fill-opacity:1;fill-rule:nonzero;stroke:none" />
    <path
       d="M -350.96772,394.49683 L -351.08435,394.49683 C -353.76674,396.8585 -357.14888,397.93 -360.5529,397.93 C -365.58967,397.93 -367.69622,395.83073 -365.72087,391.1001 L -358.26412,373.28553 L -350.17321,373.28553 L -357.10515,389.85367 C -358.11834,392.25907 -357.45503,393.19937 -355.05691,393.19937 C -352.30163,393.19937 -350.23152,391.90191 -349.109,389.2268 L -342.43947,373.28553 L -334.35585,373.28553 L -344.40753,397.31042 L -352.14127,397.31042 L -350.96772,394.49683 z"
       id="path221"
       style="fill:#ffffff;fill-opacity:1;fill-rule:nonzero;stroke:none" />
    <path
       d="M -327.78108,373.28553 L -320.05463,373.28553 L -321.22817,376.09913 L -321.11155,376.09913 C -318.41458,373.73017 -315.03972,372.65867 -311.643,372.65867 C -306.60623,372.65867 -304.49239,374.75793 -306.47502,379.48856 L -313.93178,397.31042 L -322.02269,397.31042 L -315.08346,380.74229 C -314.07756,378.32959 -314.73358,377.39659 -317.13899,377.39659 C -319.89427,377.39659 -321.95708,378.68676 -323.07961,381.36915 L -329.74914,397.31042 L -337.84004,397.31042 L -327.78108,373.28553 z"
       id="path223"
       style="fill:#ffffff;fill-opacity:1;fill-rule:nonzero;stroke:none" />
    <path
       d="M -294.09812,393.19937 C -290.52646,393.19937 -288.70419,390.52426 -286.51016,385.29798 C -284.32343,380.07169 -283.90795,377.39659 -287.47962,377.39659 C -291.00025,377.39659 -292.82253,380.07169 -295.00926,385.29798 C -297.19599,390.52426 -297.61147,393.19937 -294.09812,393.19937 M -290.12556,394.75924 L -290.24219,394.75924 C -292.93187,396.99699 -295.55594,397.93 -298.71213,397.93 C -305.33792,397.93 -306.83219,394.22713 -303.10017,385.29798 C -299.36086,376.36882 -294.75414,372.65867 -288.13564,372.65867 C -285.08879,372.65867 -283.43416,373.59896 -282.5376,375.516 L -282.42098,375.516 L -278.1933,365.42788 L -270.10968,365.42788 L -283.45603,397.31042 L -291.18977,397.31042 L -290.12556,394.75924 z"
       id="path225"
       style="fill:#ffffff;fill-opacity:1;fill-rule:nonzero;stroke:none" />
    <path
       d="M -261.41378,397.31042 L -248.06742,365.42788 L -239.62664,365.42788 L -250.76439,392.0404 L -235.82902,392.0404 L -238.03033,397.31042 L -261.41378,397.31042 z"
       id="path227"
       style="fill:#ffffff;fill-opacity:1;fill-rule:nonzero;stroke:none" />
    <path
       d="M -220.47816,393.73876 C -217.19806,393.73876 -215.12067,391.28233 -212.61322,385.29798 C -210.10576,379.31362 -210.13492,376.85719 -213.41502,376.85719 C -217.40216,376.85719 -219.23172,380.38512 -221.28725,385.29798 C -223.34278,390.21083 -224.4653,393.73876 -220.47816,393.73876 M -211.65834,372.65867 C -201.87636,372.52746 -201.03083,376.94466 -204.5296,385.29798 C -207.96277,393.5128 -212.98496,397.93 -222.24212,397.93 C -232.0241,398.06849 -232.86964,393.644 -229.37087,385.29798 C -225.93041,377.08315 -220.9228,372.65867 -211.65834,372.65867"
       id="path229"
       style="fill:#ffffff;fill-opacity:1;fill-rule:nonzero;stroke:none" />
    <path
       d="M -190.46162,392.3101 C -187.0649,392.3101 -184.89275,389.4965 -183.19439,385.42918 C -180.73796,379.58332 -180.82543,377.39659 -184.04721,377.39659 C -187.61887,377.39659 -189.17874,379.58332 -191.89029,386.05604 C -193.26793,389.35801 -193.85835,392.3101 -190.46162,392.3101 M -170.37285,373.28553 L -179.92158,396.10043 C -182.57481,402.44195 -187.56056,405.52524 -196.99266,405.52524 C -203.84442,405.52524 -206.74549,403.20002 -205.02526,399.09625 L -197.29152,399.09625 C -197.62681,399.89805 -197.41543,400.52492 -196.82501,400.92582 C -196.22731,401.32672 -195.40364,401.59642 -194.41232,401.59642 C -191.12493,401.59642 -189.17145,399.72312 -188.14369,397.2594 L -186.81707,394.09593 L -186.9337,394.09593 C -189.32452,395.88176 -192.32764,397.04073 -194.90069,397.04073 C -201.35155,397.04073 -203.17382,393.69503 -199.49283,384.89708 C -197.13844,379.26989 -193.25335,372.65867 -184.46998,372.65867 C -182.23951,372.65867 -179.81953,373.46047 -179.34574,375.96792 L -179.22911,375.96792 L -178.10659,373.28553 L -170.37285,373.28553 z"
       id="path231"
       style="fill:#ffffff;fill-opacity:1;fill-rule:nonzero;stroke:none" />
    <path
       d="M -159.77449,365.07071 L -151.69087,365.07071 L -153.89218,370.34073 L -161.98309,370.34073 L -159.77449,365.07071 z M -163.21495,373.28553 L -155.13133,373.28553 L -165.18301,397.31042 L -173.27391,397.31042 L -163.21495,373.28553 z"
       id="path233"
       style="fill:#ffffff;fill-opacity:1;fill-rule:nonzero;stroke:none" />
    <path
       d="M -149.11782,389.45277 L -149.45312,390.25457 C -150.3351,392.35383 -149.44583,393.73876 -146.69055,393.73876 C -144.23412,393.73876 -142.20046,392.79847 -141.39866,390.87414 C -140.74264,389.31427 -141.79227,388.59994 -143.18449,388.15531 L -148.21397,386.59544 C -152.16467,385.38545 -153.57146,383.28618 -152.15009,379.89675 C -150.48817,375.9169 -145.83772,372.65867 -137.52085,372.65867 C -130.1953,372.65867 -127.78261,375.15883 -129.5976,379.48856 L -130.00579,380.47259 L -137.27302,380.47259 C -136.26713,378.06718 -136.69718,376.85719 -139.33584,376.85719 C -141.38408,376.85719 -143.51979,377.75375 -144.22683,379.44482 C -144.7152,380.61108 -144.30701,381.58782 -141.88703,382.25842 L -137.55001,383.51215 C -132.99432,384.80232 -131.94469,386.77038 -133.45353,390.38577 C -135.56737,395.42983 -141.53715,397.93 -148.33788,397.93 C -157.41282,397.93 -158.65926,394.89773 -156.73493,390.2983 L -156.38506,389.45277 L -149.11782,389.45277 z"
       id="path235"
       style="fill:#ffffff;fill-opacity:1;fill-rule:nonzero;stroke:none" />
    <path
       d="M -116.44805,366.4119 L -108.36443,366.4119 L -111.24363,373.28553 L -106.54944,373.28553 L -108.30612,377.48406 L -113.0003,377.48406 L -118.43069,390.47324 C -119.21791,392.35383 -119.00653,393.1119 -116.66672,393.1119 C -116.02528,393.1119 -115.36197,393.06816 -114.81529,393.01714 L -116.60841,397.31042 C -118.4234,397.44163 -120.12176,397.57283 -121.99506,397.57283 C -128.322,397.57283 -128.87597,396.10043 -126.84231,391.2386 L -121.08392,377.48406 L -125.18769,377.48406 L -123.42372,373.28553 L -119.32725,373.28553 L -116.44805,366.4119 z"
       id="path237"
       style="fill:#ffffff;fill-opacity:1;fill-rule:nonzero;stroke:none" />
    <path
       d="M -98.837571,365.07071 L -90.753953,365.07071 L -92.955263,370.34073 L -101.04617,370.34073 L -98.837571,365.07071 z M -102.27803,373.28553 L -94.187122,373.28553 L -104.24609,397.31042 L -112.3297,397.31042 L -102.27803,373.28553 z"
       id="path239"
       style="fill:#ffffff;fill-opacity:1;fill-rule:nonzero;stroke:none" />
    <g
       transform="matrix(7.2891053,0,0,-7.2891053,-5757.9823,485.15143)"
       clip-path="url(#clipPath245)"
       id="g243">
      <path
         d="M 779.563,16.425 L 778.597,14.116 L 778.613,14.116 L 780.245,15.347 L 781.467,15.347 L 779.678,14.048 L 780.273,12.051 L 779.051,12.051 L 778.694,13.405 L 778.135,13.013 L 777.732,12.051 L 776.623,12.051 L 778.454,16.425 L 779.563,16.425 z"
         id="path249"
         style="fill:#ffffff;fill-opacity:1;fill-rule:nonzero;stroke:none" />
      <path
         d="M 700.434,24.167 C 697.743,18.645 689.821,14.207 682.314,14.234 C 678.122,14.248 674.653,15.635 673.092,18.003 C 672.101,19.506 671.977,21.319 672.65,23.318 C 672.746,23.603 672.857,23.887 672.981,24.167 L 678.9,24.167 L 678.33,19.561 L 682.484,19.561 L 686.442,23.597 L 685.938,19.561 L 690.043,19.561 L 694.541,24.167 L 700.434,24.167 z M 689.711,23.624 L 690.186,27.419 L 685.889,27.419 L 682.141,23.628 L 682.627,27.419 L 675.107,27.419 C 678.714,31.52 685.131,34.484 691.27,34.462 C 695.461,34.447 698.985,33.115 700.545,30.748 C 700.843,30.296 701.052,29.811 701.189,29.301 L 704.942,29.301 C 704.169,34.353 699.052,37.776 691.481,37.802 C 683.115,37.832 674.559,33.394 670.686,27.419 L 664.548,27.419 L 663.159,24.167 L 669.113,24.167 C 666.696,16.755 672.427,10.928 682.103,10.894 C 691.822,10.859 701.8,16.856 704.389,24.286 C 704.768,25.372 704.978,26.419 705.033,27.419 L 693.369,27.419 L 689.711,23.624 z"
         id="path251"
         style="fill:#ffffff;fill-opacity:1;fill-rule:nonzero;stroke:none" />
    </g>
    <path
       d="M -538.15195,299.19906 L -508.40511,299.19906 L -526.75179,342.67858 L -544.38413,342.67858 L -542.1318,335.96531 L -542.40878,335.96531 C -548.63368,342.46719 -558.58331,344.17284 -567.40313,344.17284 C -593.848,344.17284 -590.19616,329.78415 -579.65611,304.62216 C -568.97757,279.13945 -556.64441,265.07147 -525.86252,265.07147 C -507.39192,265.07147 -497.23091,272.2148 -504.95736,290.65623 L -530.14122,290.65623 C -528.53033,286.81487 -527.70666,283.83363 -527.83786,281.80726 C -527.91804,279.67155 -529.39044,278.49801 -532.46645,278.49801 C -541.00199,278.49801 -544.16546,284.04501 -552.78847,304.62216 C -561.41148,325.1993 -562.89117,330.73902 -554.91689,330.73902 C -549.45735,330.73902 -542.43065,328.07121 -535.69552,312.63289 L -543.77914,312.63289 L -538.15195,299.19906 z"
       id="path253"
       style="fill:#ffffff;fill-opacity:1;fill-rule:nonzero;stroke:none" />
    <path
       d="M -463.8541,304.09005 C -461.30291,298.01094 -461.82044,295.24108 -467.13419,295.24108 C -472.31675,295.24108 -475.1595,298.01094 -477.7034,304.09005 L -478.7749,306.64853 L -464.91831,306.64853 L -463.8541,304.09005 z M -483.14836,317.09382 L -486.32641,324.65991 C -488.91404,330.84836 -486.22436,332.44467 -482.72559,332.44467 C -478.25008,332.44467 -474.70029,330.31626 -471.39103,322.42215 L -448.71463,322.42215 C -454.85205,336.38808 -466.64582,344.17284 -487.49995,344.17284 C -511.85286,344.17284 -516.20445,335.85598 -506.99831,313.8939 C -497.74844,291.82978 -484.75196,283.51291 -462.08284,283.51291 C -441.92847,283.51291 -434.57376,290.33551 -443.32798,311.23338 L -445.7844,317.09382 L -483.14836,317.09382 z"
       id="path255"
       style="fill:#ffffff;fill-opacity:1;fill-rule:nonzero;stroke:none" />
    <path
       d="M -411.12471,329.8862 C -405.2424,329.8862 -402.47254,326.26351 -397.28999,313.8939 C -392.0637,301.42224 -391.80129,297.79956 -397.67631,297.79956 C -403.42012,297.79956 -406.19727,301.42224 -411.42356,313.8939 C -416.60612,326.26351 -416.86124,329.8862 -411.12471,329.8862 M -416.77377,266.55845 L -391.58991,266.55845 L -402.04248,291.50906 L -401.75821,291.50906 C -396.78704,285.64862 -389.73119,283.51291 -382.60244,283.51291 C -368.0461,283.51291 -362.22939,290.33551 -371.55945,312.61831 C -380.49589,333.93894 -390.5257,344.17284 -407.45829,344.17284 C -416.40931,344.17284 -420.33814,341.18431 -420.73175,334.79177 L -421.01603,334.79177 L -424.31799,342.67858 L -448.67089,342.67858 L -416.77377,266.55845 z"
       id="path257"
       style="fill:#ffffff;fill-opacity:1;fill-rule:nonzero;stroke:none" />
    <path
       d="M -352.46199,285.00718 L -328.10909,285.00718 L -331.95045,294.16958 L -331.67346,294.16958 C -325.96609,287.24493 -317.69296,283.51291 -310.27265,283.51291 L -306.21991,283.51291 L -313.7204,301.42224 C -315.82695,301.10152 -317.73669,300.99947 -319.83595,300.99947 C -328.79426,300.99947 -335.09205,303.66 -338.25552,311.23338 L -351.43423,342.67858 L -376.62537,342.67858 L -352.46199,285.00718 z"
       id="path259"
       style="fill:#ffffff;fill-opacity:1;fill-rule:nonzero;stroke:none" />
    <path
       d="M -302.10156,285.00718 L -276.9177,285.00718 L -292.85898,323.0636 C -294.87077,327.86712 -294.03981,329.8862 -289.5643,329.8862 C -285.0815,329.8862 -282.55947,327.86712 -280.54768,323.0636 L -264.59911,285.00718 L -239.40797,285.00718 L -263.57864,342.67858 L -287.92425,342.67858 L -284.97945,335.64459 L -285.25644,335.64459 C -290.84718,341.29365 -298.49345,344.17284 -307.1602,344.17284 C -318.21777,344.17284 -325.51417,340.87088 -320.33161,328.50127 L -302.10156,285.00718 z M -259.04482,265.07147 L -240.29724,265.07147 L -245.53081,277.54313 L -264.28568,277.54313 L -259.04482,265.07147 z M -284.51295,265.07147 L -265.76537,265.07147 L -270.99895,277.54313 L -289.75382,277.54313 L -284.51295,265.07147 z"
       id="path261"
       style="fill:#ffffff;fill-opacity:1;fill-rule:nonzero;stroke:none" />
    <path
       d="M -217.65728,329.8862 C -211.92075,329.8862 -209.1436,326.26351 -203.96105,313.8939 C -198.73476,301.42224 -198.47964,297.79956 -204.21617,297.79956 C -210.09118,297.79956 -212.86833,301.42224 -218.09462,313.8939 C -223.27718,326.26351 -223.53958,329.8862 -217.65728,329.8862 M -184.12739,266.55845 L -158.94353,266.55845 L -190.83337,342.67858 L -215.18627,342.67858 L -211.87702,334.79177 L -212.16129,334.79177 C -217.91968,341.18431 -224.34139,344.17284 -233.2997,344.17284 C -250.23229,344.17284 -251.68282,333.93894 -242.74638,312.61831 C -233.635,290.86762 -221.31641,283.51291 -207.32861,283.51291 C -200.18529,283.51291 -194.92256,285.64862 -194.86424,291.50906 L -194.57997,291.50906 L -184.12739,266.55845 z"
       id="path263"
       style="fill:#ffffff;fill-opacity:1;fill-rule:nonzero;stroke:none" />
    <path
       d="M -126.96623,304.09005 C -124.42233,298.01094 -124.93986,295.24108 -130.2609,295.24108 C -135.43617,295.24108 -138.27892,298.01094 -140.82282,304.09005 L -141.89432,306.64853 L -128.03773,306.64853 L -126.96623,304.09005 z M -146.27507,317.09382 L -149.44583,324.65991 C -152.03346,330.84836 -149.34378,332.44467 -145.8523,332.44467 C -141.3695,332.44467 -137.81971,330.31626 -134.51045,322.42215 L -111.84133,322.42215 C -117.97876,336.38808 -129.77253,344.17284 -150.61937,344.17284 C -174.97228,344.17284 -179.32387,335.85598 -170.11773,313.8939 C -160.87515,291.82978 -147.87138,283.51291 -125.20955,283.51291 C -105.05518,283.51291 -97.693181,290.33551 -106.45469,311.23338 L -108.91111,317.09382 L -146.27507,317.09382 z"
       id="path265"
       style="fill:#ffffff;fill-opacity:1;fill-rule:nonzero;stroke:none" />
    <path
       d="M -88.74216,285.00718 L -64.396548,285.00718 L -68.237907,294.16958 L -67.960921,294.16958 C -62.253551,287.24493 -53.973128,283.51291 -46.560108,283.51291 L -42.500076,283.51291 L -50.007854,301.42224 C -52.107117,301.10152 -54.024151,300.99947 -56.123414,300.99947 C -65.081724,300.99947 -71.372222,303.66 -74.542983,311.23338 L -87.721685,342.67858 L -112.91283,342.67858 L -88.74216,285.00718 z"
       id="path267"
       style="fill:#ffffff;fill-opacity:1;fill-rule:nonzero;stroke:none" />
    <path
       d="M 38.59851,266.55845 L 62.105874,266.55845 L 52.892445,312.66933 L 53.17672,312.66933 L 79.599727,266.55845 L 104.78359,266.55845 L 55.822665,342.67858 L 27.27124,342.67858 L 38.000803,296.75721 L 37.723817,296.75721 L 9.6388943,342.67858 L -18.905242,342.67858 L -4.086491,266.55845 L 21.104657,266.55845 L 9.5149795,312.66933 L 9.7919655,312.66933 L 38.59851,266.55845 z"
       id="path269"
       style="fill:#ffffff;fill-opacity:1;fill-rule:nonzero;stroke:none" />
    <path
       d="M 125.99488,304.09005 C 128.53878,298.01094 128.02125,295.24108 122.7075,295.24108 C 117.52494,295.24108 114.68948,298.01094 112.14558,304.09005 L 111.07408,306.64853 L 124.92338,306.64853 L 125.99488,304.09005 z M 106.69333,317.09382 L 103.52257,324.65991 C 100.92765,330.84836 103.61733,332.44467 107.1161,332.44467 C 111.59161,332.44467 115.14869,330.31626 118.45066,322.42215 L 141.11978,322.42215 C 134.98964,336.38808 123.19587,344.17284 102.34174,344.17284 C 77.996124,344.17284 73.644528,335.85598 82.843379,313.8939 C 92.085964,291.82978 105.08973,283.51291 127.75885,283.51291 C 147.91322,283.51291 155.26793,290.33551 146.51371,311.23338 L 144.05729,317.09382 L 106.69333,317.09382 z"
       id="path271"
       style="fill:#ffffff;fill-opacity:1;fill-rule:nonzero;stroke:none" />
    <path
       d="M 173.06792,266.55845 L 198.25178,266.55845 L 193.6232,277.54313 L 168.43205,277.54313 L 173.06792,266.55845 z M 165.34147,285.00718 L 190.52533,285.00718 L 166.36195,342.67858 L 141.1708,342.67858 L 165.34147,285.00718 z"
       id="path273"
       style="fill:#ffffff;fill-opacity:1;fill-rule:nonzero;stroke:none" />
    <g
       transform="matrix(7.2891053,0,0,-7.2891053,-5757.9823,485.15143)"
       clip-path="url(#clipPath279)"
       id="g277">
      <path
         d="M 817.959,22.003 C 817.831,21.696 817.785,21.403 817.884,21.228 C 817.984,21.052 818.19,20.95 818.497,20.95 C 819.035,20.95 819.6,21.198 819.777,21.623 C 820.366,23.027 815.006,22.193 816.262,25.191 C 816.844,26.581 818.622,27.663 821.426,27.663 C 824.017,27.663 824.973,26.829 824.281,25.177 L 821.286,25.177 C 821.568,25.85 821.308,26.054 820.732,26.054 C 820.214,26.054 819.751,25.82 819.592,25.44 C 819.046,24.138 824.424,25.016 823.156,21.988 C 822.513,20.452 820.492,19.341 817.881,19.341 C 814.982,19.341 814.203,20.277 814.926,22.003 L 817.959,22.003 z"
         id="path283"
         style="fill:#ffffff;fill-opacity:1;fill-rule:nonzero;stroke:none" />
      <path
         d="M 826.905,22.003 C 826.776,21.696 826.73,21.403 826.829,21.228 C 826.929,21.052 827.136,20.95 827.443,20.95 C 827.98,20.95 828.545,21.198 828.723,21.623 C 829.311,23.027 823.951,22.193 825.208,25.191 C 825.79,26.581 827.568,27.663 830.37,27.663 C 832.963,27.663 833.918,26.829 833.226,25.177 L 830.231,25.177 C 830.513,25.85 830.253,26.054 829.677,26.054 C 829.159,26.054 828.696,25.82 828.537,25.44 C 827.991,24.138 833.37,25.016 832.101,21.988 C 831.458,20.452 829.437,19.341 826.826,19.341 C 823.927,19.341 823.148,20.277 823.871,22.003 L 826.905,22.003 z"
         id="path285"
         style="fill:#ffffff;fill-opacity:1;fill-rule:nonzero;stroke:none" />
    </g>
  </g>
</svg>
